<svg width="29" height="30" viewBox="0 0 29 30" fill="none" xmlns="http://www.w3.org/2000/svg">
<path d="M13.9791 16.6849C13.9072 16.6128 13.8218 16.5557 13.7278 16.5167C13.6337 16.4777 13.533 16.4576 13.4312 16.4576C13.3294 16.4576 13.2286 16.4777 13.1346 16.5167C13.0406 16.5557 12.9552 16.6128 12.8833 16.6849L9.42306 20.1451L8.09324 18.8152C8.02227 18.739 7.93668 18.6779 7.84156 18.6354C7.74644 18.593 7.64375 18.5702 7.53962 18.5684C7.43549 18.5665 7.33204 18.5856 7.23546 18.6246C7.13889 18.6636 7.05118 18.7217 6.97753 18.7953C6.90389 18.869 6.84582 18.9567 6.80683 19.0532C6.76783 19.1498 6.74869 19.2533 6.75055 19.3574C6.75241 19.4615 6.77524 19.5642 6.81765 19.6593C6.86007 19.7545 6.92121 19.8401 6.99744 19.911L8.87577 21.7894C8.94768 21.8614 9.03308 21.9185 9.12709 21.9575C9.22111 21.9965 9.32189 22.0166 9.42367 22.0166C9.52545 22.0166 9.62623 21.9965 9.72024 21.9575C9.81425 21.9185 9.89966 21.8614 9.97156 21.7894L13.9791 17.7866C14.0519 17.7146 14.1097 17.6287 14.1491 17.5342C14.1885 17.4396 14.2088 17.3382 14.2088 17.2357C14.2088 17.1333 14.1885 17.0319 14.1491 16.9373C14.1097 16.8428 14.0519 16.7569 13.9791 16.6849Z"/>
<path d="M27.0026 4.37667L18.2615 0.235948C17.6987 -0.0338897 17.0529 -0.0739287 16.4611 0.124325C16.1714 0.219341 15.904 0.372292 15.6751 0.573874C15.4463 0.775455 15.2609 1.02146 15.1301 1.29694L13.5698 4.58312C12.6841 3.91154 11.6028 3.54857 10.4913 3.54973C9.13626 3.55132 7.83711 4.08997 6.87851 5.04767C5.91991 6.00537 5.38004 7.30401 5.37718 8.65904V8.76345H3.04157C2.57597 8.76549 2.12807 8.94205 1.78631 9.25825C1.44455 9.57446 1.23378 10.0073 1.19564 10.4714L0.01223 25.3636C-0.0323716 25.9551 0.0453149 26.5495 0.240447 27.1097C0.435579 27.6699 0.743977 28.1839 1.14643 28.6198C1.55019 29.0545 2.03915 29.4013 2.58284 29.6388C3.12653 29.8763 3.71331 29.9992 4.30659 30H16.6688C17.2621 29.9992 17.8488 29.8763 18.3925 29.6388C18.9362 29.4013 19.4252 29.0545 19.8289 28.6198C20.2317 28.1837 20.5403 27.6692 20.7354 27.1086C20.9305 26.548 21.0081 25.9531 20.9631 25.3612L20.7543 22.7279C20.9653 22.5337 21.1369 22.3006 21.2596 22.0414L28.1656 7.47442C28.421 6.90926 28.442 6.26592 28.224 5.68531C28.006 5.10469 27.5668 4.63413 27.0026 4.37667ZM19.098 1.96905L20.3606 2.56916L17.4225 8.76585H15.8766L19.098 1.96905ZM16.2463 1.82503C16.3367 1.63905 16.4781 1.48263 16.6541 1.37403C16.8301 1.26543 17.0333 1.20914 17.2401 1.21172C17.4141 1.21195 17.5859 1.25089 17.743 1.32574L17.9794 1.43616L15.3389 7.01594C15.1519 6.46662 14.8727 5.95319 14.5132 5.49768L16.2463 1.82503ZM6.92425 8.65904C6.92521 7.71393 7.30107 6.80781 7.96936 6.13951C8.63765 5.47122 9.54377 5.09535 10.4889 5.0944C11.434 5.09535 12.3401 5.47122 13.0084 6.13951C13.6767 6.80781 14.0526 7.71393 14.0535 8.65904V8.76345H6.92425V8.65904ZM18.6923 27.5672C18.4352 27.8472 18.1223 28.0705 17.7739 28.2226C17.4254 28.3747 17.049 28.4524 16.6688 28.4505H4.30659C3.92637 28.4524 3.54996 28.3747 3.2015 28.2226C2.85303 28.0705 2.54019 27.8472 2.28303 27.5672C2.02358 27.2896 1.82496 26.9609 1.69992 26.6021C1.57488 26.2433 1.52617 25.8623 1.55691 25.4836L2.73671 10.5926C2.74273 10.5167 2.77703 10.4458 2.83283 10.394C2.88862 10.3422 2.96184 10.3133 3.03796 10.3129H5.37718V12.2213C5.37718 12.4269 5.45887 12.6241 5.60427 12.7695C5.74967 12.9149 5.94688 12.9966 6.15252 12.9966C6.35815 12.9966 6.55536 12.9149 6.70076 12.7695C6.84616 12.6241 6.92785 12.4269 6.92785 12.2213V10.3177H14.0559V12.2261C14.0559 12.4317 14.1376 12.6289 14.283 12.7743C14.4284 12.9197 14.6256 13.0014 14.8312 13.0014C15.0369 13.0014 15.2341 12.9197 15.3795 12.7743C15.5249 12.6289 15.6066 12.4317 15.6066 12.2261V10.3177H17.9398C18.016 10.3184 18.0893 10.3476 18.145 10.3996C18.2008 10.4516 18.2351 10.5226 18.2411 10.5986L19.4221 25.4812C19.4526 25.8606 19.4034 26.2421 19.2778 26.6013C19.1521 26.9606 18.9527 27.2896 18.6923 27.5672ZM27.0446 6.94393L20.5839 20.5723L19.7797 10.475C19.7533 10.147 19.6405 9.83193 19.4526 9.56184C19.2647 9.29174 19.0086 9.0763 18.7103 8.93748L21.478 3.09846L26.4793 5.47007C26.7516 5.59752 26.9635 5.82616 27.0698 6.10738C27.1225 6.24126 27.1474 6.38445 27.1431 6.52825C27.1387 6.67205 27.1052 6.81347 27.0446 6.94393Z"/>
<path d="M24.3225 5.92375L23.5279 5.54689C23.1766 5.37405 22.771 5.34762 22.4002 5.4734C22.0294 5.59917 21.7237 5.86688 21.55 6.21781L21.1899 6.98475C21.0281 7.34147 21.0145 7.74781 21.1519 8.1146C21.2894 8.48139 21.5668 8.77863 21.9232 8.94109L22.7178 9.31796C22.9229 9.41568 23.1471 9.46652 23.3743 9.46678C23.5376 9.46659 23.6997 9.43984 23.8544 9.38757C24.0373 9.32748 24.2061 9.23085 24.3505 9.10356C24.4949 8.97626 24.612 8.82094 24.6946 8.64704L25.0546 7.8801C25.1371 7.70604 25.1834 7.51702 25.1906 7.32452C25.1979 7.13202 25.1659 6.94006 25.0966 6.76031C24.9573 6.3913 24.6796 6.09118 24.3225 5.92375ZM23.9336 7.34841L23.5735 8.11534C23.543 8.1746 23.4903 8.21936 23.4269 8.23983C23.3634 8.2603 23.2945 8.25481 23.2351 8.22457L22.4405 7.84769C22.3795 7.82085 22.3316 7.77092 22.3073 7.70884C22.283 7.64675 22.2843 7.57757 22.3109 7.51644L22.671 6.74951C22.6911 6.70795 22.7227 6.67305 22.7621 6.649C22.8014 6.62495 22.8469 6.61275 22.893 6.61388C22.9345 6.61338 22.9756 6.62241 23.0131 6.64028L23.8076 7.01715C23.8677 7.04466 23.9146 7.09467 23.9381 7.1564C23.9617 7.21814 23.9601 7.28785 23.9336 7.34841Z"/>
</svg>
