<svg width="29" height="31" viewBox="0 0 29 31" fill="none" xmlns="http://www.w3.org/2000/svg">
<path d="M14.1338 17.0399C14.0611 16.967 13.9748 16.9093 13.8797 16.8699C13.7847 16.8304 13.6828 16.8101 13.5799 16.8101C13.477 16.8101 13.3752 16.8304 13.2801 16.8699C13.1851 16.9093 13.0988 16.967 13.0261 17.0399L9.52904 20.5393L8.18495 19.1952C8.03652 19.0561 7.83978 18.9801 7.63635 18.9834C7.43292 18.9867 7.23873 19.069 7.09487 19.2128C6.951 19.3567 6.86874 19.5509 6.86546 19.7543C6.86217 19.9577 6.93812 20.1545 7.07727 20.3029L8.9758 22.2014C9.04848 22.2743 9.13481 22.332 9.22984 22.3715C9.32488 22.4109 9.42676 22.4312 9.52964 22.4312C9.63253 22.4312 9.73441 22.4109 9.82944 22.3715C9.92448 22.332 10.0108 22.2743 10.0835 22.2014L14.1338 18.1511C14.207 18.0783 14.2651 17.9917 14.3047 17.8964C14.3444 17.801 14.3648 17.6988 14.3648 17.5955C14.3648 17.4922 14.3444 17.39 14.3047 17.2946C14.2651 17.1993 14.207 17.1127 14.1338 17.0399Z" fill="#28B5DE"/>
<path d="M21.2502 7.00116L17.65 5.32105C17.5649 5.27675 17.4718 5.25014 17.3761 5.24281C17.2805 5.23548 17.1844 5.24759 17.0935 5.27841C17.0027 5.30923 16.9191 5.35812 16.8477 5.42213C16.7762 5.48615 16.7185 5.56396 16.678 5.65088C16.6374 5.7378 16.6149 5.83202 16.6118 5.92788C16.6087 6.02374 16.625 6.11924 16.6597 6.20863C16.6945 6.29802 16.7469 6.37945 16.814 6.44801C16.8811 6.51656 16.9613 6.57083 17.0499 6.60754L20.6502 8.28765C20.7352 8.33195 20.8284 8.35857 20.9241 8.36589C21.0197 8.37322 21.1158 8.36111 21.2066 8.33029C21.2974 8.29947 21.3811 8.25058 21.4525 8.18657C21.5239 8.12256 21.5816 8.04475 21.6222 7.95783C21.6627 7.87091 21.6852 7.77668 21.6884 7.68082C21.6915 7.58497 21.6752 7.48946 21.6405 7.40007C21.6057 7.31068 21.5532 7.22926 21.4862 7.1607C21.4191 7.09214 21.3388 7.03787 21.2502 7.00116Z" fill="#28B5DE"/>
<path d="M28.6439 7.08877L27.8291 5.04863C27.7546 4.86592 27.6135 4.71834 27.4342 4.6358C27.2555 4.55134 27.0512 4.53804 26.863 4.5986L25.4685 5.05944L24.9249 3.69494C24.8504 3.51222 24.7093 3.36465 24.53 3.28211C24.3513 3.19764 24.147 3.18435 23.9588 3.24491L22.5643 3.70574L22.0207 2.34245C21.9465 2.15928 21.8053 2.01124 21.6258 1.92842C21.4471 1.84383 21.2428 1.83053 21.0546 1.89121L19.6613 2.35205L19.1177 0.98755C19.0432 0.804835 18.9021 0.657257 18.7228 0.574719C18.5441 0.490136 18.3398 0.476835 18.1516 0.537519L16.0623 1.22757C15.9727 1.2563 15.89 1.30306 15.8192 1.36498C15.7484 1.4269 15.691 1.50266 15.6506 1.58759L14.0317 5.06063C13.0885 4.22188 11.8701 3.75891 10.6079 3.75974C9.23753 3.76133 7.92375 4.3064 6.95477 5.27539C5.98578 6.24438 5.44071 7.55815 5.43912 8.9285V9.03411H3.07856C2.6078 9.03614 2.15493 9.21466 1.80941 9.5344C1.4639 9.85414 1.25088 10.2918 1.21243 10.761L0.0123432 25.8125C-0.0327175 26.4105 0.0458964 27.0115 0.243283 27.5778C0.440669 28.1442 0.752593 28.6638 1.15962 29.1043C1.56772 29.5439 2.062 29.8946 2.61162 30.1348C3.16125 30.3749 3.75445 30.4992 4.35425 30.5H16.8531C17.4529 30.4992 18.0461 30.3749 18.5957 30.1348C19.1454 29.8946 19.6396 29.5439 20.0477 29.1043C20.455 28.6635 20.7671 28.1435 20.9645 27.5767C21.1619 27.0099 21.2403 26.4085 21.195 25.8101L20.9154 22.2902L21.6775 22.0382C21.767 22.0095 21.8497 21.9627 21.9205 21.9008C21.9913 21.8389 22.0487 21.7631 22.0891 21.6782L28.6319 7.63721C28.6713 7.55147 28.6927 7.45857 28.6948 7.36424C28.6968 7.26991 28.6795 7.17615 28.6439 7.08877ZM7.00403 8.9285C7.00562 7.97414 7.38544 7.05933 8.06027 6.38449C8.7351 5.70966 9.64992 5.32984 10.6043 5.32825C11.5586 5.32984 12.4735 5.70966 13.1483 6.38449C13.8231 7.05933 14.2029 7.97414 14.2045 8.9285V9.03411H7.00403V8.9285ZM18.8993 28.0398C18.6399 28.3222 18.3245 28.5474 17.9732 28.7011C17.622 28.8549 17.2425 28.9337 16.8591 28.9327H4.35904C3.97562 28.9337 3.59619 28.8549 3.24493 28.7011C2.89367 28.5474 2.5783 28.3222 2.3189 28.0398C2.05684 27.7593 1.85617 27.4273 1.7297 27.0648C1.60324 26.7024 1.55377 26.3175 1.58445 25.9349L2.78453 10.8834C2.79084 10.8068 2.82565 10.7353 2.88208 10.6831C2.93851 10.6309 3.01247 10.6018 3.08936 10.6014H5.44752V12.53C5.44752 12.7378 5.53008 12.9371 5.67705 13.0841C5.82401 13.231 6.02334 13.3136 6.23117 13.3136C6.43901 13.3136 6.63834 13.231 6.7853 13.0841C6.93227 12.9371 7.01483 12.7378 7.01483 12.53V10.6014H14.2153V12.53C14.2153 12.7378 14.2979 12.9371 14.4449 13.0841C14.5918 13.231 14.7911 13.3136 14.999 13.3136C15.2068 13.3136 15.4061 13.231 15.5531 13.0841C15.7001 12.9371 15.7826 12.7378 15.7826 12.53V10.6014H18.1408C18.2181 10.6018 18.2923 10.6313 18.3488 10.684C18.4053 10.7367 18.4399 10.8088 18.4456 10.8858L19.6457 25.9325C19.675 26.3165 19.6236 26.7023 19.4948 27.0653C19.3661 27.4282 19.164 27.7602 18.8993 28.0398ZM20.8482 20.7745L20.7978 20.7913L20.5758 17.9975C20.682 17.9765 20.7818 17.931 20.8672 17.8645C20.9527 17.798 21.0214 17.7125 21.0678 17.6147C21.1439 17.4364 21.1463 17.2353 21.0743 17.0553C21.0023 16.8753 20.8619 16.7312 20.6838 16.6546L20.4606 16.5502L20.3154 14.7189L20.6514 14.8749C20.7373 14.9181 20.8308 14.9439 20.9267 14.951C21.0226 14.958 21.1189 14.9461 21.2102 14.9159C21.3014 14.8857 21.3859 14.8378 21.4586 14.775C21.5314 14.7121 21.5911 14.6356 21.6342 14.5497C21.7105 14.3716 21.713 14.1705 21.6412 13.9906C21.5695 13.8106 21.4293 13.6664 21.2514 13.5896L20.1869 13.094L20.0453 11.3095L22.6171 12.5095C22.703 12.5527 22.7966 12.5786 22.8924 12.5856C22.9883 12.5926 23.0846 12.5807 23.1759 12.5505C23.2672 12.5203 23.3516 12.4724 23.4244 12.4096C23.4971 12.3468 23.5568 12.2702 23.6 12.1843C23.6762 12.0062 23.6787 11.8052 23.6069 11.6252C23.5352 11.4452 23.395 11.3011 23.2172 11.2243L19.0817 9.29693C18.9762 9.23456 18.8649 9.1827 18.7492 9.14211L16.3923 8.04404C16.2843 7.99254 16.1658 7.96702 16.0461 7.96952C15.9265 7.97202 15.8092 8.00247 15.7034 8.05844C15.6013 7.46069 15.3941 6.88577 15.0914 6.36032L16.8939 2.49246L18.0004 2.13243L18.544 3.49692C18.6184 3.68002 18.7595 3.82803 18.9389 3.91095C19.1176 3.99554 19.3219 4.00884 19.5101 3.94815L20.9034 3.48732L21.447 4.85062C21.5215 5.03333 21.6626 5.18091 21.8419 5.26345C22.0206 5.34803 22.2249 5.36133 22.4131 5.30065L23.8076 4.83982L24.3512 6.20431C24.4258 6.38696 24.5669 6.5345 24.7461 6.61714C24.9248 6.70172 25.1291 6.71503 25.3173 6.65434L26.7118 6.19351L27.1438 7.27359L20.8482 20.7745Z" fill="#28B5DE"/>
</svg>
