<svg width="24" height="31" viewBox="0 0 24 31" fill="none" xmlns="http://www.w3.org/2000/svg">
<path d="M23.2643 25.2525L21.9531 8.41093C21.9113 7.88534 21.6775 7.39489 21.298 7.03658C20.9185 6.67827 20.421 6.47819 19.9037 6.47592H17.3143V6.35714C17.3236 5.59141 17.1837 4.83141 16.9027 4.12122C16.6217 3.41103 16.2052 2.76478 15.6773 2.21994C15.1494 1.6751 14.5207 1.24252 13.8276 0.947274C13.1344 0.65203 12.3907 0.5 11.6395 0.5C10.8883 0.5 10.1446 0.65203 9.45148 0.947274C8.75836 1.24252 8.12963 1.6751 7.60175 2.21994C7.07388 2.76478 6.65735 3.41103 6.37634 4.12122C6.09532 4.83141 5.95541 5.59141 5.96471 6.35714V6.47592H3.37359C2.85669 6.47793 2.35934 6.67757 1.97987 7.03537C1.60039 7.39317 1.36641 7.88308 1.32417 8.40827L0.0138317 25.2543C-0.0362135 25.9236 0.0498761 26.5963 0.266708 27.2301C0.48354 27.864 0.826442 28.4454 1.27393 28.9378C1.72141 29.4303 2.26384 29.8232 2.86723 30.092C3.47062 30.3609 4.12196 30.4997 4.78045 30.5H18.4977C19.1564 30.4998 19.808 30.3608 20.4116 30.0918C21.0152 29.8229 21.5577 29.4297 22.0053 28.9369C22.4528 28.4442 22.7956 27.8625 23.0123 27.2283C23.2289 26.5941 23.3148 25.9221 23.2643 25.2525ZM7.68371 6.35714C7.68371 5.28749 8.10053 4.26165 8.84247 3.5053C9.58441 2.74894 10.5907 2.32402 11.64 2.32402C12.6892 2.32402 13.6955 2.74894 14.4374 3.5053C15.1794 4.26165 15.5962 5.28749 15.5962 6.35714V6.47592H7.68371V6.35714ZM20.7436 27.7477C20.4584 28.0646 20.1113 28.3172 19.7247 28.4893C19.3381 28.6615 18.9205 28.7495 18.4986 28.7476H4.78045C4.35894 28.7476 3.94198 28.6589 3.55569 28.4869C3.1694 28.315 2.82211 28.0636 2.53558 27.7484C2.24905 27.4333 2.02947 27.0612 1.89058 26.6555C1.7517 26.2498 1.69652 25.8193 1.72849 25.3908L3.0397 8.54477C3.04645 8.45886 3.08461 8.37866 3.1466 8.32006C3.2086 8.26146 3.28992 8.22872 3.37446 8.22833H5.96384V10.3876C5.96384 10.6201 6.05444 10.8431 6.21571 11.0075C6.37698 11.1719 6.59571 11.2642 6.82378 11.2642C7.05185 11.2642 7.27058 11.1719 7.43185 11.0075C7.59312 10.8431 7.68371 10.6201 7.68371 10.3876V8.22833H15.5962V10.3876C15.5962 10.6201 15.6868 10.8431 15.8481 11.0075C16.0093 11.1719 16.2281 11.2642 16.4561 11.2642C16.6842 11.2642 16.9029 11.1719 17.0642 11.0075C17.2255 10.8431 17.3161 10.6201 17.3161 10.3876V8.22833H19.9054C19.991 8.22836 20.0733 8.26151 20.1358 8.32108C20.1983 8.38066 20.2362 8.4622 20.2419 8.54921L21.5462 25.3908C21.5806 25.819 21.527 26.2497 21.3888 26.6556C21.2506 27.0614 21.0309 27.4334 20.7436 27.7477Z" fill="#077BC2"/>
<path d="M15.5127 15.4365C15.4328 15.3549 15.338 15.2902 15.2335 15.2461C15.1291 15.2019 15.0171 15.1792 14.9041 15.1792C14.791 15.1792 14.679 15.2019 14.5746 15.2461C14.4702 15.2902 14.3753 15.3549 14.2954 15.4365L10.4557 19.35L8.97753 17.8431C8.8161 17.6785 8.59717 17.5861 8.36888 17.5861C8.14059 17.5861 7.92166 17.6785 7.76023 17.8431C7.59881 18.0077 7.50812 18.2309 7.50812 18.4636C7.50812 18.6963 7.59881 18.9195 7.76023 19.0841L9.84703 21.2114C9.92691 21.293 10.0218 21.3577 10.1262 21.4019C10.2307 21.446 10.3426 21.4688 10.4557 21.4688C10.5688 21.4688 10.6807 21.446 10.7852 21.4019C10.8896 21.3577 10.9845 21.293 11.0643 21.2114L15.5119 16.6775C15.5919 16.5961 15.6555 16.4995 15.6989 16.393C15.7423 16.2866 15.7647 16.1725 15.7647 16.0572C15.7648 15.9419 15.7426 15.8278 15.6994 15.7213C15.6561 15.6148 15.5927 15.518 15.5127 15.4365Z" fill="#077BC2"/>
</svg>
