<svg width="30" height="30" viewBox="0 0 30 30" fill="none" xmlns="http://www.w3.org/2000/svg">
<path d="M29.5032 7.60992L15.4416 0.109765C15.3058 0.0376877 15.1544 0 15.0006 0C14.8468 0 14.6954 0.0376877 14.5596 0.109765L0.4968 7.60992C0.346825 7.68977 0.221374 7.80887 0.133866 7.95451C0.0463589 8.10015 8.6973e-05 8.26684 0 8.43674V13.124H1.8744V24.5735C1.33273 24.766 0.862886 25.1196 0.52786 25.5867C0.192834 26.0539 0.00864738 26.6123 0 27.1871V30H30V27.1871C29.9914 26.6123 29.8072 26.0539 29.4721 25.5867C29.1371 25.1196 28.6673 24.766 28.1256 24.5735V13.1252H30V8.43674C30.0001 8.26663 29.954 8.09969 29.8664 7.95383C29.7789 7.80796 29.6534 7.68986 29.5032 7.60992ZM12.1872 13.13V24.3803H7.5V13.1252L12.1872 13.13ZM22.5 13.13V24.3803H17.8128V13.1252L22.5 13.13ZM15.9372 24.3803H14.0628V13.1252H15.9372V24.3803ZM5.6244 24.3803H3.75V13.1252H5.6244V24.3803ZM28.1244 28.1304H1.8756V27.1931C1.8947 26.9272 2.01798 26.6796 2.21864 26.5041C2.4193 26.3286 2.68113 26.2394 2.9472 26.2559H27.0552C27.3213 26.2394 27.5831 26.3286 27.7838 26.5041C27.9844 26.6796 28.1077 26.9272 28.1268 27.1931L28.1244 28.1304ZM26.2488 24.3803H24.3744V13.1252H26.2488V24.3803ZM1.8756 11.2496V8.99955L15 1.9998L28.1244 8.99955V11.2496H1.8756Z"/>
<path d="M16.3236 5.2375C16.5856 5.49972 16.764 5.83371 16.8361 6.19727C16.9083 6.56083 16.8711 6.93763 16.7292 7.28004C16.5873 7.62245 16.347 7.9151 16.0388 8.12099C15.7306 8.32688 15.3683 8.43677 14.9976 8.43677C14.627 8.43677 14.2647 8.32688 13.9565 8.12099C13.6483 7.9151 13.408 7.62245 13.2661 7.28004C13.1242 6.93763 13.0869 6.56083 13.1591 6.19727C13.2313 5.83371 13.4097 5.49972 13.6716 5.2375C13.8457 5.06327 14.0524 4.92504 14.2799 4.83074C14.5075 4.73643 14.7513 4.68789 14.9976 4.68789C15.2439 4.68789 15.4878 4.73643 15.7153 4.83074C15.9429 4.92504 16.1496 5.06327 16.3236 5.2375Z"/>
</svg>
