<svg width="30" height="31" viewBox="0 0 30 31" fill="none" xmlns="http://www.w3.org/2000/svg">
<path d="M26.2956 6.736H22.9068C22.8483 6.72492 22.7929 6.70111 22.7446 6.66628C22.6963 6.63144 22.6562 6.58642 22.6272 6.5344L21.7512 3.9052C21.6046 3.50217 21.3401 3.15259 20.9921 2.90197C20.6441 2.65134 20.2287 2.51128 19.8 2.5H10.2C9.77125 2.51111 9.35578 2.65111 9.00774 2.90176C8.65971 3.15241 8.39524 3.50208 8.2488 3.9052L7.3728 6.5332C7.34373 6.58517 7.30364 6.63015 7.25534 6.66498C7.20703 6.6998 7.15169 6.72364 7.0932 6.7348H3.7044C2.72211 6.73607 1.78044 7.12693 1.08597 7.82162C0.391504 8.51632 0.000952546 9.45811 0 10.4404V23.1484C0.00127007 24.1305 0.391962 25.072 1.0864 25.7664C1.78083 26.4608 2.72232 26.8515 3.7044 26.8528H26.2956C27.2779 26.8515 28.2196 26.4607 28.914 25.766C29.6085 25.0713 29.999 24.1295 30 23.1472V10.4404C29.999 9.45822 29.6085 8.51655 28.914 7.82205C28.2195 7.12754 27.2778 6.73695 26.2956 6.736ZM28.2384 23.1472C28.2381 23.6625 28.0333 24.1566 27.6691 24.521C27.3048 24.8855 26.8109 25.0906 26.2956 25.0912H3.7044C3.18912 25.0906 2.69515 24.8855 2.33091 24.521C1.96667 24.1566 1.76192 23.6625 1.7616 23.1472V10.4404C1.76287 9.92575 1.96804 9.43257 2.33218 9.06888C2.69632 8.7052 3.18975 8.50063 3.7044 8.5H7.0932C7.52209 8.48805 7.93745 8.34728 8.28524 8.09602C8.63303 7.84475 8.89714 7.49463 9.0432 7.0912L9.9192 4.462C9.94846 4.41006 9.98878 4.36519 10.0373 4.33056C10.0858 4.29593 10.1414 4.27239 10.2 4.2616H19.8C19.8585 4.27269 19.9139 4.29649 19.9622 4.33132C20.0105 4.36616 20.0506 4.41118 20.0796 4.4632L20.9556 7.0912C21.1015 7.495 21.3657 7.84543 21.7138 8.09676C22.0618 8.34808 22.4776 8.48861 22.9068 8.5H26.2956C26.8107 8.50064 27.3045 8.70553 27.6687 9.06973C28.0329 9.43394 28.2378 9.92773 28.2384 10.4428V23.1472Z" fill="#28B5DE"/>
<path d="M15.2736 9.0736C13.8546 9.07384 12.4676 9.49484 11.2878 10.2834C10.1081 11.0719 9.18867 12.1925 8.64581 13.5036C8.10295 14.8146 7.96104 16.2572 8.23802 17.6489C8.515 19.0406 9.19842 20.3189 10.2019 21.3222C11.2053 22.3255 12.4838 23.0087 13.8755 23.2854C15.2673 23.5622 16.7098 23.42 18.0208 22.8769C19.3317 22.3339 20.4522 21.4142 21.2405 20.2344C22.0288 19.0545 22.4496 17.6674 22.4496 16.2484C22.4474 14.346 21.6906 12.5222 20.3453 11.1771C19 9.832 17.176 9.0755 15.2736 9.0736ZM15.2736 21.6628C14.2027 21.6628 13.1559 21.3453 12.2655 20.7503C11.3751 20.1554 10.6812 19.3098 10.2714 18.3204C9.86155 17.3311 9.75432 16.2424 9.96324 15.1921C10.1722 14.1418 10.6878 13.1771 11.445 12.4198C12.2023 11.6626 13.167 11.1469 14.2173 10.938C15.2676 10.7291 16.3563 10.8363 17.3456 11.2461C18.335 11.6559 19.1806 12.3499 19.7755 13.2403C20.3705 14.1307 20.688 15.1775 20.688 16.2484C20.6864 17.6839 20.1155 19.0602 19.1004 20.0752C18.0854 21.0903 16.7091 21.6612 15.2736 21.6628Z" fill="#28B5DE"/>
<path d="M15.2724 12.3988C14.511 12.3988 13.7667 12.6246 13.1337 13.0476C12.5006 13.4706 12.0072 14.0718 11.7158 14.7752C11.4245 15.4786 11.3482 16.2527 11.4968 16.9994C11.6453 17.7462 12.0119 18.4321 12.5503 18.9705C13.0887 19.5089 13.7746 19.8755 14.5214 20.024C15.2681 20.1726 16.0421 20.0963 16.7456 19.805C17.449 19.5136 18.0502 19.0202 18.4732 18.3871C18.8962 17.7541 19.122 17.0098 19.122 16.2484C19.1207 15.2278 18.7147 14.2494 17.9931 13.5277C17.2714 12.8061 16.293 12.4001 15.2724 12.3988ZM15.2724 18.3364C14.8594 18.3364 14.4557 18.2139 14.1124 17.9845C13.769 17.7551 13.5014 17.429 13.3433 17.0475C13.1853 16.6659 13.144 16.2461 13.2245 15.841C13.3051 15.436 13.5039 15.064 13.796 14.772C14.088 14.48 14.46 14.2811 14.865 14.2005C15.2701 14.12 15.6899 14.1613 16.0714 14.3193C16.453 14.4774 16.7791 14.745 17.0085 15.0884C17.2379 15.4317 17.3604 15.8354 17.3604 16.2484C17.3607 16.8026 17.1409 17.3342 16.7494 17.7265C16.3579 18.1187 15.8266 18.3394 15.2724 18.34V18.3364Z" fill="#28B5DE"/>
<path d="M25.7688 11.3536C25.7634 11.3252 25.7562 11.2971 25.7472 11.2696C25.739 11.2419 25.7294 11.2147 25.7184 11.188C25.7076 11.1616 25.6944 11.1352 25.6812 11.11C25.668 11.0848 25.6536 11.0596 25.6368 11.0356C25.62 11.0116 25.6032 10.9876 25.5852 10.966C25.5672 10.9444 25.5468 10.9216 25.5276 10.9024C25.5084 10.8832 25.4856 10.8628 25.4628 10.8436C25.44 10.8244 25.4172 10.8088 25.3932 10.792C25.3692 10.7752 25.344 10.7608 25.3188 10.7476C25.2936 10.7344 25.2672 10.7224 25.242 10.7104C25.2153 10.6994 25.1881 10.6898 25.1604 10.6816C25.1333 10.6727 25.1056 10.6655 25.0776 10.66C25.0494 10.6541 25.021 10.6497 24.9924 10.6468C24.9349 10.6411 24.8771 10.6411 24.8196 10.6468C24.791 10.6497 24.7626 10.6542 24.7344 10.66C24.706 10.6655 24.678 10.6727 24.6504 10.6816C24.6227 10.6898 24.5955 10.6994 24.5688 10.7104C24.5424 10.7212 24.516 10.7332 24.4908 10.7476C24.4656 10.762 24.4404 10.7764 24.4164 10.792C24.3923 10.808 24.3691 10.8252 24.3468 10.8436C24.324 10.8628 24.3024 10.882 24.282 10.9024C24.2617 10.9226 24.2425 10.9438 24.2244 10.966C24.2064 10.9888 24.1896 11.0116 24.1728 11.0356C24.156 11.0596 24.1416 11.0848 24.1284 11.11C24.1151 11.1354 24.1031 11.1614 24.0924 11.188C24.0816 11.2156 24.0708 11.242 24.0636 11.2696C24.0564 11.2972 24.048 11.3248 24.042 11.3536C24.0361 11.3818 24.0317 11.4102 24.0288 11.4388C24.0288 11.4676 24.0288 11.4964 24.0288 11.5252C24.0295 11.7587 24.1222 11.9825 24.2868 12.148C24.3072 12.1684 24.3288 12.1876 24.3516 12.2056C24.3738 12.2241 24.397 12.2414 24.4212 12.2572C24.4452 12.2728 24.4704 12.2884 24.4956 12.3016C24.5208 12.3148 24.5472 12.328 24.5736 12.3376C24.6003 12.349 24.6275 12.359 24.6552 12.3676C24.6828 12.376 24.7116 12.3832 24.7392 12.3892C24.7673 12.3952 24.7958 12.3996 24.8244 12.4024C24.8532 12.4038 24.882 12.4038 24.9108 12.4024C24.9396 12.4039 24.9684 12.4039 24.9972 12.4024C25.0258 12.3996 25.0543 12.3952 25.0824 12.3892C25.11 12.3892 25.1388 12.376 25.1652 12.3676C25.1929 12.359 25.2202 12.349 25.2468 12.3376C25.2732 12.3268 25.2984 12.3148 25.3236 12.3016C25.3488 12.2884 25.374 12.2728 25.398 12.2572C25.422 12.2416 25.4448 12.2248 25.4676 12.2056C25.4904 12.1864 25.512 12.1672 25.5324 12.148C25.697 11.9825 25.7897 11.7587 25.7904 11.5252C25.7919 11.4964 25.7919 11.4676 25.7904 11.4388C25.7851 11.41 25.7779 11.3815 25.7688 11.3536Z" fill="#28B5DE"/>
<path d="M25.7688 13.8196C25.7633 13.7916 25.7561 13.7639 25.7472 13.7368C25.7388 13.7092 25.7292 13.6816 25.7184 13.6552C25.7076 13.6288 25.6944 13.6036 25.6812 13.5784C25.6541 13.5273 25.622 13.4791 25.5852 13.4344C25.5673 13.4121 25.548 13.3909 25.5276 13.3708C25.4353 13.2789 25.3239 13.2085 25.2014 13.1645C25.0788 13.1206 24.948 13.1041 24.8184 13.1164C24.7908 13.1164 24.762 13.1236 24.7332 13.1296C24.7049 13.1353 24.6768 13.1426 24.6492 13.1512C24.6228 13.1596 24.5952 13.1692 24.5688 13.18C24.5424 13.1908 24.516 13.204 24.4908 13.2172C24.4656 13.2304 24.4404 13.2448 24.4164 13.2616C24.3922 13.2775 24.369 13.2947 24.3468 13.3132C24.324 13.3312 24.3024 13.3504 24.282 13.3708C24.1173 13.5363 24.0245 13.7601 24.024 13.9936C24.024 14.0224 24.024 14.0512 24.024 14.08C24.0269 14.1086 24.0313 14.1371 24.0372 14.1652C24.0372 14.1928 24.0504 14.2216 24.0588 14.2492C24.0672 14.2768 24.0768 14.3044 24.0876 14.3308C24.0983 14.3574 24.1103 14.3834 24.1236 14.4088C24.1368 14.434 24.1524 14.4592 24.168 14.4832C24.1839 14.5073 24.2012 14.5305 24.2196 14.5528C24.2376 14.5756 24.2568 14.5972 24.2772 14.6176C24.2978 14.6379 24.3194 14.6572 24.342 14.6752C24.3641 14.6938 24.3874 14.711 24.4116 14.7268C24.4356 14.7424 24.4608 14.758 24.486 14.7712C24.5112 14.7844 24.5376 14.7976 24.564 14.8072C24.5903 14.8182 24.6171 14.8278 24.6444 14.836C24.672 14.8444 24.7008 14.8516 24.7284 14.8576C24.756 14.8636 24.786 14.8672 24.8136 14.8708C24.8428 14.8723 24.872 14.8723 24.9012 14.8708C24.93 14.8723 24.9588 14.8723 24.9876 14.8708C25.0164 14.8708 25.0452 14.8636 25.0728 14.8576C25.1004 14.8516 25.1292 14.8444 25.1556 14.836C25.1829 14.8279 25.2098 14.8183 25.236 14.8072C25.2895 14.7854 25.3406 14.7581 25.3884 14.7256C25.4124 14.71 25.4364 14.6932 25.458 14.674C25.4803 14.6561 25.5015 14.6368 25.5216 14.6164C25.5419 14.5958 25.5611 14.5742 25.5792 14.5516C25.5977 14.5294 25.6149 14.5062 25.6308 14.482C25.6464 14.458 25.6608 14.4328 25.6752 14.4076C25.6896 14.3824 25.7016 14.356 25.7124 14.3296C25.7232 14.3032 25.7328 14.2756 25.7412 14.248C25.7501 14.2205 25.7573 14.1924 25.7628 14.164C25.7688 14.1359 25.7732 14.1074 25.776 14.0788C25.7775 14.05 25.7775 14.0212 25.776 13.9924C25.7775 13.9636 25.7775 13.9348 25.776 13.906C25.7753 13.8771 25.7729 13.8483 25.7688 13.8196Z" fill="#28B5DE"/>
</svg>
