<svg width="30" height="30" viewBox="0 0 30 30" fill="none" xmlns="http://www.w3.org/2000/svg">
<path d="M1.37996 15.6561L1.38001 15.6561L2.46012 14.576L2.46044 14.5757C2.58089 14.4551 2.72393 14.3595 2.88137 14.2942C3.03881 14.2289 3.20756 14.1954 3.37799 14.1954C3.54841 14.1954 3.71717 14.2289 3.87461 14.2942C4.03205 14.3595 4.17508 14.4551 4.29554 14.5757L4.29585 14.576L9.69641 19.9765L10.4036 20.6837L11.1107 19.9765L25.7042 5.38055L25.7045 5.3803C25.8249 5.25974 25.968 5.16409 26.1254 5.09884C26.2828 5.03359 26.4516 5 26.622 5C26.7924 5 26.9612 5.03359 27.1186 5.09884C27.2761 5.1641 27.4191 5.25974 27.5396 5.3803L27.5399 5.38061L28.62 6.46072L28.62 6.46078C28.7405 6.58122 28.8361 6.72421 28.9012 6.88159C28.9664 7.03896 29 7.20764 29 7.37799C29 7.54833 28.9664 7.71701 28.9012 7.87439C28.8361 8.03176 28.7405 8.17475 28.62 8.2952L28.6198 8.29539L10.7831 26.1393C10.7829 26.1396 10.7827 26.1398 10.7825 26.14C10.683 26.2387 10.5485 26.294 10.4083 26.294C10.2682 26.294 10.1337 26.2387 10.0342 26.14C10.034 26.1398 10.0337 26.1396 10.0335 26.1393L1.37996 17.4906C1.37991 17.4905 1.37986 17.4905 1.37982 17.4904C1.25942 17.37 1.16392 17.2271 1.09875 17.0697C1.03356 16.9124 1 16.7437 1 16.5733C1 16.403 1.03356 16.2343 1.09875 16.0769C1.16394 15.9196 1.2595 15.7766 1.37996 15.6561Z" stroke="#7004DC" stroke-width="2"/>
</svg>
