<svg width="30" height="31" viewBox="0 0 30 31" xmlns="http://www.w3.org/2000/svg">
<path d="M28.5536 15.8919C28.4915 15.7709 28.4592 15.6379 28.4592 15.503C28.4592 15.3681 28.4915 15.2351 28.5536 15.1141L29.7193 12.8251C30.0329 12.2159 30.086 11.5132 29.8673 10.8669C29.6486 10.2207 29.1754 9.682 28.5486 9.36588L26.2036 8.16558C26.0793 8.1028 25.9716 8.01342 25.889 7.90437C25.8064 7.79531 25.751 7.66949 25.7271 7.53662L25.2681 5.0268C25.1486 4.35694 24.761 3.75845 24.188 3.35906C23.6151 2.95966 22.9022 2.791 22.2014 2.88907L19.575 3.24916C19.436 3.26846 19.2942 3.25684 19.1607 3.21522C19.0271 3.1736 18.9053 3.10308 18.8046 3.0091L16.8935 1.23986C16.3867 0.765501 15.7067 0.5 14.9988 0.5C14.2908 0.5 13.6108 0.765501 13.104 1.23986L11.1954 3.0115C11.0948 3.10548 10.9729 3.176 10.8393 3.21762C10.7058 3.25924 10.564 3.27086 10.425 3.25156L7.79858 2.89147C7.09785 2.7934 6.38494 2.96206 5.81199 3.36146C5.23904 3.76085 4.85144 4.35934 4.73191 5.0292L4.27291 7.53903C4.24901 7.6719 4.19361 7.79772 4.11099 7.90677C4.02836 8.01583 3.92073 8.1052 3.7964 8.16798L1.45137 9.36828C0.82463 9.6844 0.351427 10.2231 0.132724 10.8693C-0.0859798 11.5156 -0.0328664 12.2183 0.280731 12.8275L1.44637 15.1165C1.50848 15.2375 1.54079 15.3705 1.54079 15.5054C1.54079 15.6403 1.50848 15.7733 1.44637 15.8943L0.280731 18.1833C-0.0328664 18.7925 -0.0859798 19.4952 0.132724 20.1415C0.351427 20.7877 0.82463 21.3264 1.45137 21.6425L3.7964 22.8428C3.92073 22.9056 4.02836 22.995 4.11099 23.104C4.19361 23.2131 4.24901 23.3389 4.27291 23.4718L4.73191 25.9816C4.84075 26.5867 5.16892 27.1353 5.65844 27.5307C6.14796 27.926 6.76733 28.1426 7.40711 28.1421C7.53743 28.1397 7.6674 28.1284 7.79607 28.1085L10.4225 27.7484C10.5615 27.7291 10.7033 27.7406 10.8369 27.7822C10.9705 27.8239 11.0923 27.8944 11.1929 27.9885L13.1015 29.7601C13.6083 30.2345 14.2883 30.5 14.9962 30.5C15.7042 30.5 16.3842 30.2345 16.891 29.7601L18.7996 27.9885C18.9002 27.8945 19.0221 27.824 19.1557 27.7824C19.2892 27.7408 19.431 27.7291 19.57 27.7484L22.1964 28.1085C22.8972 28.2066 23.6101 28.0379 24.183 27.6385C24.756 27.2391 25.1436 26.6407 25.2631 25.9708L25.7221 23.461C25.746 23.3281 25.8014 23.2023 25.884 23.0932C25.9666 22.9842 26.0743 22.8948 26.1986 22.832L28.5436 21.6317C29.1704 21.3156 29.6436 20.7769 29.8623 20.1307C30.081 19.4844 30.0279 18.7817 29.7143 18.1725L28.5536 15.8919ZM27.7032 20.1121L25.3581 21.3124C24.9909 21.498 24.6731 21.762 24.4291 22.0842C24.1852 22.4064 24.0216 22.778 23.9511 23.1705L23.4921 25.6803C23.451 25.9063 23.3197 26.1079 23.1261 26.2424C22.9324 26.3769 22.6918 26.4336 22.4553 26.4005L19.8289 26.0404C19.4182 25.9834 18.9993 26.0177 18.6047 26.1407C18.21 26.2637 17.85 26.4721 17.5526 26.7498L15.6441 28.5214C15.4726 28.6819 15.2426 28.7717 15.0031 28.7717C14.7636 28.7717 14.5336 28.6819 14.3622 28.5214L12.4536 26.7498C11.9481 26.2776 11.2705 26.0136 10.5651 26.014C10.4354 26.0141 10.3058 26.0229 10.1774 26.0404L7.55094 26.4005C7.31444 26.4336 7.07381 26.3769 6.8802 26.2424C6.68658 26.1079 6.55526 25.9063 6.51413 25.6803L6.05263 23.1645C5.98214 22.772 5.8186 22.4004 5.57463 22.0782C5.33067 21.756 5.01281 21.492 4.64561 21.3064L2.30058 20.1061C2.08845 19.9993 1.92824 19.8171 1.85416 19.5984C1.78009 19.3798 1.79802 19.142 1.90412 18.9359L3.06975 16.6469C3.25322 16.2896 3.34865 15.8965 3.34865 15.4982C3.34865 15.0999 3.25322 14.7068 3.06975 14.3495L1.90412 12.0605C1.79802 11.8544 1.78009 11.6166 1.85416 11.398C1.92824 11.1793 2.08845 10.9971 2.30058 10.8903L4.64561 9.68996C5.01162 9.5054 5.32873 9.24284 5.57262 8.92243C5.81652 8.60201 5.98071 8.23225 6.05263 7.8415L6.51163 5.33168C6.55276 5.10573 6.68408 4.90407 6.8777 4.76959C7.07131 4.63511 7.31194 4.57839 7.54844 4.6115L10.1749 4.97159C10.5856 5.02865 11.0044 4.99435 11.3991 4.87135C11.7938 4.74835 12.1537 4.53994 12.4511 4.26221L14.3572 2.48337C14.5286 2.32288 14.7586 2.23305 14.9981 2.23305C15.2376 2.23305 15.4676 2.32288 15.6391 2.48337L17.5476 4.25501C17.845 4.53274 18.205 4.74115 18.5997 4.86415C18.9943 4.98715 19.4132 5.02144 19.8239 4.96439L22.4503 4.6043C22.6868 4.57119 22.9274 4.6279 23.1211 4.76239C23.3147 4.89687 23.446 5.09852 23.4871 5.32448L23.9461 7.8343C24.0166 8.22677 24.1802 8.59845 24.4241 8.92062C24.6681 9.24279 24.9859 9.50683 25.3531 9.69236L27.6982 10.8927C27.9103 10.9995 28.0705 11.1817 28.1446 11.4004C28.2187 11.619 28.2007 11.8568 28.0946 12.0629L26.939 14.3543C26.7555 14.7116 26.6601 15.1047 26.6601 15.503C26.6601 15.9013 26.7555 16.2944 26.939 16.6517L28.1046 18.9407C28.2108 19.1475 28.2281 19.386 28.1531 19.6051C28.078 19.8241 27.9165 20.0061 27.7032 20.1121Z"/>
<path d="M21.5873 9.17743C21.5036 9.09701 21.4042 9.03321 21.2947 8.98968C21.1853 8.94616 21.068 8.92375 20.9495 8.92375C20.831 8.92375 20.7137 8.94616 20.6043 8.98968C20.4948 9.03321 20.3954 9.09701 20.3116 9.17743L8.40766 20.6031C8.3239 20.6835 8.25746 20.7789 8.21212 20.8839C8.16679 20.989 8.14346 21.1015 8.14346 21.2152C8.14346 21.3289 8.16679 21.4415 8.21212 21.5465C8.25746 21.6515 8.3239 21.747 8.40766 21.8274C8.49142 21.9078 8.59087 21.9715 8.70031 22.015C8.80975 22.0585 8.92704 22.0809 9.0455 22.0809C9.16396 22.0809 9.28127 22.0585 9.39071 22.015C9.50015 21.9715 9.5996 21.9078 9.68336 21.8274L21.5848 10.4053C21.6694 10.3251 21.7365 10.2295 21.7824 10.1242C21.8283 10.019 21.8521 9.90601 21.8523 9.79188C21.8525 9.67776 21.8293 9.56472 21.7838 9.45926C21.7383 9.35381 21.6715 9.25802 21.5873 9.17743Z"/>
<path d="M11.3918 7.71547C10.738 7.71547 10.0989 7.90152 9.55532 8.25011C9.01172 8.5987 8.58805 9.09416 8.33786 9.67383C8.08767 10.2535 8.02221 10.8914 8.14975 11.5068C8.2773 12.1221 8.59211 12.6874 9.0544 13.1311C9.51669 13.5747 10.1057 13.8769 10.7469 13.9993C11.3881 14.1217 12.0528 14.0589 12.6568 13.8188C13.2608 13.5787 13.777 13.172 14.1403 12.6503C14.5035 12.1286 14.6973 11.5153 14.6973 10.8879C14.6963 10.0468 14.3478 9.24042 13.7281 8.64569C13.1084 8.05096 12.2682 7.71642 11.3918 7.71547ZM11.3918 12.3306C11.095 12.3306 10.8048 12.2461 10.558 12.0879C10.3112 11.9296 10.1188 11.7047 10.0052 11.4415C9.89163 11.1783 9.86189 10.8887 9.9198 10.6093C9.97771 10.3299 10.1207 10.0732 10.3305 9.87177C10.5404 9.67034 10.8079 9.53316 11.099 9.47758C11.3901 9.422 11.6919 9.45052 11.9661 9.55954C12.2404 9.66856 12.4748 9.85317 12.6397 10.09C12.8046 10.3269 12.8926 10.6054 12.8926 10.8903C12.8926 11.2723 12.7345 11.6386 12.453 11.9087C12.1716 12.1789 11.7898 12.3306 11.3918 12.3306Z"/>
<path d="M18.6045 16.9457C17.9507 16.9457 17.3116 17.1318 16.768 17.4804C16.2244 17.829 15.8007 18.3245 15.5505 18.9041C15.3004 19.4838 15.2349 20.1217 15.3624 20.737C15.49 21.3524 15.8048 21.9177 16.2671 22.3614C16.7294 22.805 17.3184 23.1072 17.9596 23.2296C18.6008 23.352 19.2654 23.2892 19.8695 23.0491C20.4735 22.8089 20.9897 22.4023 21.3529 21.8806C21.7161 21.3589 21.91 20.7456 21.91 20.1181C21.9087 19.2772 21.56 18.471 20.9404 17.8763C20.3207 17.2817 19.4807 16.947 18.6045 16.9457ZM18.6045 21.5609C18.3076 21.5609 18.0175 21.4764 17.7707 21.3182C17.5238 21.1599 17.3315 20.935 17.2179 20.6718C17.1043 20.4086 17.0746 20.119 17.1325 19.8396C17.1904 19.5602 17.3333 19.3035 17.5432 19.102C17.7531 18.9006 18.0206 18.7634 18.3117 18.7079C18.6028 18.6523 18.9046 18.6808 19.1788 18.7898C19.4531 18.8988 19.6875 19.0835 19.8524 19.3203C20.0173 19.5572 20.1053 19.8357 20.1053 20.1206C20.1053 20.5026 19.9471 20.8689 19.6657 21.139C19.3842 21.4091 19.0025 21.5609 18.6045 21.5609Z"/>
</svg>