<svg width="30" height="30" viewBox="0 0 30 30" fill="none" xmlns="http://www.w3.org/2000/svg">
<path d="M16.1868 17.8695L16.1766 18.7468V18.9765C16.1766 19.4284 15.6791 19.7936 15.0633 19.7936C14.4499 19.7936 13.9473 19.4233 13.9473 18.9713V15.9215V15.2301L18.1768 15.2721V10.5086C18.1768 9.42945 17.0865 8.55038 15.7411 8.54788L14.2538 8.54548C12.9084 8.54298 11.8182 9.41715 11.8182 10.4963L11.8208 19.3095C11.8208 20.3887 12.911 21.2678 14.2564 21.2702L15.7462 21.2727C17.0916 21.2752 18.1818 20.4011 18.1818 19.3219V17.8896L16.1868 17.8695ZM13.9471 10.6543C13.9471 10.2024 14.4446 9.83716 15.0604 9.83716C15.6761 9.83716 16.1764 10.2075 16.1764 10.6595V13.7089L13.9499 13.704V10.6543H13.9471Z" fill="#7004DC"/>
<path fill-rule="evenodd" clip-rule="evenodd" d="M26 5.68595H4C2.72975 5.68595 1.7 6.70719 1.7 7.96694V21.8512C1.7 23.111 2.72975 24.1322 4 24.1322H26C27.2703 24.1322 28.3 23.111 28.3 21.8512V7.96694C28.3 6.70719 27.2703 5.68595 26 5.68595ZM4 4C1.79086 4 0 5.77606 0 7.96694V21.8512C0 24.0421 1.79086 25.8182 4 25.8182H26C28.2091 25.8182 30 24.0421 30 21.8512V7.96694C30 5.77606 28.2091 4 26 4H4Z" fill="#7004DC"/>
</svg>
