<svg width="30" height="22" viewBox="0 0 30 22" xmlns="http://www.w3.org/2000/svg">
<path d="M27.36 0.5H2.64C1.93983 0.5 1.26833 0.77814 0.773238 1.27324C0.278142 1.76833 0 2.43982 0 3.14V18.9572C0 19.6574 0.278142 20.3289 0.773238 20.824C1.26833 21.3191 1.93983 21.5972 2.64 21.5972H27.36C28.0602 21.5972 28.7317 21.3191 29.2268 20.824C29.7219 20.3289 30 19.6574 30 18.9572V3.14C30 2.43982 29.7219 1.76833 29.2268 1.27324C28.7317 0.77814 28.0602 0.5 27.36 0.5ZM8.7888 19.8356H2.64C2.40713 19.8353 2.18389 19.7426 2.01923 19.578C1.85456 19.4133 1.76192 19.1901 1.7616 18.9572V9.2888H3.66C3.87293 9.9236 4.30937 10.4594 4.88801 10.7963C5.46665 11.1332 6.14802 11.2482 6.8052 11.12L5.4216 13.196C5.29223 13.39 5.24521 13.6274 5.2909 13.8561C5.33658 14.0847 5.47122 14.2858 5.6652 14.4152C5.85918 14.5446 6.09661 14.5916 6.32525 14.5459C6.5539 14.5002 6.75503 14.3656 6.8844 14.1716L8.79 11.3132L8.7888 19.8356ZM5.2728 8.4092C5.27207 8.22731 5.32093 8.04865 5.41413 7.89244C5.50732 7.73622 5.64133 7.60837 5.80175 7.52261C5.96216 7.43685 6.14292 7.39643 6.32458 7.40569C6.50624 7.41496 6.68195 7.47357 6.8328 7.5752L8.0856 8.4152L6.8328 9.2552C6.68111 9.35711 6.50441 9.41554 6.32187 9.42416C6.13933 9.43277 5.95791 9.39125 5.7973 9.30408C5.63669 9.21691 5.503 9.08743 5.41075 8.92967C5.31851 8.77192 5.27001 8.59193 5.2728 8.4092ZM8.7888 6.7676L7.806 6.1124C7.45332 5.87757 7.05131 5.72709 6.63111 5.67262C6.21091 5.61815 5.78382 5.66116 5.38292 5.79831C4.98202 5.93547 4.61808 6.16308 4.3193 6.46352C4.02052 6.76395 3.79493 7.12915 3.66 7.5308H1.758V3.14C1.75832 2.90713 1.85096 2.6839 2.01563 2.51923C2.18029 2.35457 2.40353 2.26192 2.6364 2.2616H8.7888V6.7676ZM28.242 18.9572C28.2417 19.1901 28.149 19.4133 27.9844 19.578C27.8197 19.7426 27.5965 19.8353 27.3636 19.8356H10.5468V11.3156L12.4524 14.174C12.5821 14.3686 12.7838 14.5037 13.0131 14.5496C13.2424 14.5956 13.4806 14.5485 13.6752 14.4188C13.8698 14.2891 14.0049 14.0874 14.0509 13.8581C14.0968 13.6288 14.0497 13.3906 13.92 13.196L12.5364 11.12C13.1936 11.2482 13.875 11.1332 14.4536 10.7963C15.0322 10.4594 15.4687 9.9236 15.6816 9.2888H28.242V18.9572ZM11.2524 8.4104L12.5052 7.5704C12.6561 7.47011 12.8315 7.41264 13.0125 7.40411C13.1935 7.39558 13.3735 7.4363 13.5332 7.52194C13.6929 7.60758 13.8264 7.73494 13.9195 7.89044C14.0125 8.04594 14.0617 8.22378 14.0617 8.405C14.0617 8.58623 14.0125 8.76406 13.9195 8.91957C13.8264 9.07507 13.6929 9.20243 13.5332 9.28806C13.3735 9.3737 13.1935 9.41443 13.0125 9.40589C12.8315 9.39736 12.6561 9.33988 12.5052 9.2396L11.2524 8.4104ZM28.242 7.532H15.6768C15.5419 7.13016 15.3163 6.7648 15.0174 6.46422C14.7186 6.16365 14.3545 5.93595 13.9534 5.79878C13.5524 5.66161 13.1251 5.61866 12.7048 5.67325C12.2844 5.72785 11.8823 5.87853 11.5296 6.1136L10.5468 6.7688V2.258H27.36C27.5929 2.25831 27.8161 2.35096 27.9808 2.51562C28.1454 2.68029 28.2381 2.90353 28.2384 3.1364L28.242 7.532Z"/>
<path d="M25.6044 12.8048H18.456C18.2229 12.8048 17.9993 12.8974 17.8345 13.0622C17.6696 13.2271 17.577 13.4507 17.577 13.6838C17.577 13.9169 17.6696 14.1405 17.8345 14.3053C17.9993 14.4702 18.2229 14.5628 18.456 14.5628H25.6044C25.8375 14.5628 26.0611 14.4702 26.226 14.3053C26.3908 14.1405 26.4834 13.9169 26.4834 13.6838C26.4834 13.4507 26.3908 13.2271 26.226 13.0622C26.0611 12.8974 25.8375 12.8048 25.6044 12.8048Z"/>
<path d="M25.6044 16.3208H18.456C18.2229 16.3208 17.9993 16.4134 17.8345 16.5782C17.6696 16.7431 17.577 16.9667 17.577 17.1998C17.577 17.4329 17.6696 17.6565 17.8345 17.8214C17.9993 17.9862 18.2229 18.0788 18.456 18.0788H25.6044C25.8375 18.0788 26.0611 17.9862 26.226 17.8214C26.3908 17.6565 26.4834 17.4329 26.4834 17.1998C26.4834 16.9667 26.3908 16.7431 26.226 16.5782C26.0611 16.4134 25.8375 16.3208 25.6044 16.3208Z"/>
</svg>
