<svg width="24" height="30" viewBox="0 0 24 30" xmlns="http://www.w3.org/2000/svg">
<path d="M17.1524 10.7064H6.43247C6.14816 10.7064 5.87549 10.5934 5.67445 10.3924C5.47341 10.1914 5.36047 9.91878 5.36047 9.6345V4.27516C5.36047 3.99089 5.47341 3.71825 5.67445 3.51724C5.87549 3.31622 6.14816 3.20329 6.43247 3.20329H7.64383C7.88366 2.28578 8.42096 1.47366 9.17164 0.894038C9.92232 0.314415 10.844 0 11.7925 0C12.7409 0 13.6626 0.314415 14.4133 0.894038C15.1639 1.47366 15.7012 2.28578 15.9411 3.20329H17.1524C17.4367 3.20329 17.7094 3.31622 17.9105 3.51724C18.1115 3.71825 18.2244 3.99089 18.2244 4.27516V9.6345C18.2244 9.91878 18.1115 10.1914 17.9105 10.3924C17.7094 10.5934 17.4367 10.7064 17.1524 10.7064ZM7.50447 8.56264H16.0804V5.34703H15.0084C14.7241 5.34703 14.4515 5.2341 14.2504 5.03309C14.0494 4.83207 13.9364 4.55944 13.9364 4.27516C13.9364 3.70661 13.7106 3.16134 13.3085 2.75931C12.9064 2.35728 12.3611 2.13143 11.7925 2.13143C11.2238 2.13143 10.6785 2.35728 10.2764 2.75931C9.87434 3.16134 9.64846 3.70661 9.64846 4.27516C9.64846 4.55944 9.53552 4.83207 9.33448 5.03309C9.13344 5.2341 8.86077 5.34703 8.57646 5.34703H7.50447V8.56264ZM23.5844 26.7844V7.49077C23.5844 6.63794 23.2456 5.82003 22.6425 5.21699C22.0394 4.61395 21.2214 4.27516 20.3684 4.27516H19.2964V6.4189H20.3684C20.6527 6.4189 20.9254 6.53183 21.1264 6.73284C21.3275 6.93386 21.4404 7.20649 21.4404 7.49077V26.7844C21.4404 27.0687 21.3275 27.3413 21.1264 27.5423C20.9254 27.7433 20.6527 27.8563 20.3684 27.8563H3.21648C2.93217 27.8563 2.6595 27.7433 2.45846 27.5423C2.25742 27.3413 2.14448 27.0687 2.14448 26.7844V7.49077C2.14448 7.20649 2.25742 6.93386 2.45846 6.73284C2.6595 6.53183 2.93217 6.4189 3.21648 6.4189H4.28848V4.27516H3.21648C2.36354 4.27516 1.54555 4.61395 0.94243 5.21699C0.339315 5.82003 0.000488281 6.63794 0.000488281 7.49077V26.7844C0.000488281 27.6372 0.339315 28.4551 0.94243 29.0582C1.54555 29.6612 2.36354 30 3.21648 30H20.3684C21.2214 30 22.0394 29.6612 22.6425 29.0582C23.2456 28.4551 23.5844 27.6372 23.5844 26.7844ZM18.2244 13.922H5.36047V16.0657H18.2244V13.922ZM18.2244 18.2094H5.36047V20.3532H18.2244V18.2094ZM18.2244 22.4969H5.36047V24.6407H18.2244V22.4969Z"/>
</svg>
