<svg width="30" height="31" viewBox="0 0 30 31" fill="blue" xmlns="http://www.w3.org/2000/svg">
<path d="M19.1589 23.0798C19.3396 23.1609 19.4807 23.3102 19.5516 23.4951C19.6215 23.6804 19.6152 23.8858 19.5341 24.0665C19.453 24.2471 19.3037 24.3883 19.1187 24.4591C18.1589 24.8278 17.1125 24.9096 16.107 24.6946C15.1015 24.4796 14.1801 23.977 13.455 23.2479C12.9538 22.7546 12.5617 22.1615 12.3042 21.507H11.1611C10.9629 21.507 10.7728 21.4283 10.6327 21.2882C10.4926 21.1481 10.4138 20.958 10.4138 20.7598C10.4138 20.5616 10.4926 20.3716 10.6327 20.2315C10.7728 20.0913 10.9629 20.0126 11.1611 20.0126H11.9233C11.8959 19.7395 11.891 19.4646 11.9084 19.1907H11.1613C10.9631 19.1907 10.7731 19.112 10.6329 18.9719C10.4928 18.8317 10.4141 18.6417 10.4141 18.4435C10.4141 18.2453 10.4928 18.0553 10.6329 17.9151C10.7731 17.775 10.9631 17.6963 11.1613 17.6963H12.2205C12.4802 16.9665 12.9017 16.3049 13.4533 15.7611C14.1797 15.0339 15.1015 14.5332 16.107 14.3197C17.1124 14.1063 18.1582 14.1894 19.1173 14.5588C19.2965 14.6337 19.4394 14.7756 19.5156 14.9543C19.5917 15.1331 19.5951 15.3344 19.525 15.5156C19.4548 15.6967 19.3168 15.8434 19.1402 15.9242C18.9636 16.0051 18.7624 16.0139 18.5794 15.9486C17.8915 15.6837 17.1415 15.6239 16.4203 15.7765C15.699 15.929 15.0375 16.2873 14.5157 16.808C14.2634 17.0738 14.0453 17.37 13.8664 17.6898H18.2226C18.4184 17.6933 18.6051 17.7736 18.7423 17.9133C18.8796 18.0531 18.9565 18.2411 18.9565 18.437C18.9565 18.6329 18.8796 18.8209 18.7423 18.9607C18.6051 19.1004 18.4184 19.1807 18.2226 19.1842H13.4254C13.3954 19.4579 13.403 19.7344 13.4478 20.0061H17.834C18.0322 20.0061 18.2222 20.0848 18.3623 20.225C18.5025 20.3651 18.5812 20.5552 18.5812 20.7533C18.5812 20.9515 18.5025 21.1416 18.3623 21.2817C18.2222 21.4218 18.0322 21.5005 17.834 21.5005H13.9934C14.1288 21.7567 14.3084 21.9869 14.5239 22.1806C15.044 22.7039 15.7048 23.0651 16.4261 23.2203C17.1474 23.3754 17.8983 23.318 18.5876 23.0549V23.0623C18.7728 22.9924 18.9783 22.9987 19.1589 23.0798Z"/>
<path fill-rule="evenodd" clip-rule="evenodd" d="M4.00016 20.3286C3.96777 26.6993 8.74323 30.498 15.1726 30.5C26.1851 30.413 27.8137 22.7862 27.256 19.1869C26.6557 15.5015 24.4705 12.9741 19.5057 9.07928C19.5057 9.07928 13.792 9.43253 12.1118 8.91936C12.1118 8.91936 4.03154 13.959 4.00016 20.3286ZM23.6568 25.4632C21.928 27.4967 19.0709 28.5441 15.1651 28.5763C12.2284 28.5738 9.70742 27.6636 8.06585 26.0132C6.65285 24.5925 5.91214 22.6302 5.9238 20.3384C5.9433 16.3786 10.2336 12.5584 12.5134 10.9613C13.1565 11.051 14.1245 11.1215 15.6487 11.1215C16.8918 11.1215 18.1257 11.0742 18.8815 11.0385C23.3027 14.571 24.8984 16.6781 25.3573 19.4961C25.5959 21.036 25.2957 23.5354 23.6568 25.4632Z"/>
<path d="M12.9519 7.79786C12.9519 7.79786 14.3183 8.22602 15.7242 8.22602C17.2152 8.22602 18.7496 7.79786 18.7496 7.79786C19.3063 7.79786 19.7578 7.33935 19.7578 6.77151C19.7578 6.20672 19.3063 5.74719 18.7496 5.74719C18.7496 5.74719 17.2718 6.17433 15.8082 6.17433C14.373 6.17433 12.9519 5.74719 12.9519 5.74719C12.3952 5.74719 11.9437 6.20672 11.9437 6.77151C11.9437 7.33935 12.3952 7.79786 12.9519 7.79786Z"/>
<path d="M11.6917 0.507141C11.6917 0.507141 11.1305 4.69634 15.8238 4.69584L15.8933 4.69554C20.9501 4.64999 20.0938 0.549651 20.0938 0.549651C20.0938 0.549651 19.0472 0.568887 18.3114 1.0274C17.4105 1.58916 16.4591 2.0163 15.8933 2.00415C15.4245 1.99328 14.661 1.59184 13.9097 1.19676C13.6115 1.03993 13.3152 0.884112 13.0399 0.754114C12.3658 0.434266 11.6917 0.507141 11.6917 0.507141Z"/>
</svg>
